<svg xmlns="http://www.w3.org/2000/svg" width="805" height="600"><rect width="805" height="600" x="0" y="0" fill="#FFFFFF" id="background"/><g transform="translate(10,10)" id="visualization"><g><rect x="780" y="0" height="31.450126165150603" width="5" fill="black"><title>2025-02: 68487.06</title></rect><rect x="780" y="36.45012616515061" height="31.547373633767222" width="5" fill="black"><title>2025-03: 68698.83</title></rect><rect x="780" y="72.99749979891783" height="17.12821956215626" width="5" fill="black"><title>2025-04: 37299.100000000006</title></rect><rect x="780" y="95.12571936107409" height="17.187747301480854" width="5" fill="black"><title>2025-05: 37428.73</title></rect><rect x="780" y="117.31346666255494" height="27.21511072518406" width="5" fill="black"><title>2025-06: 59264.72</title></rect><rect x="780" y="149.528577387739" height="28.293351275125872" width="5" fill="black"><title>2025-07: 61612.740000000005</title></rect><rect x="780" y="182.82192866286488" height="55.24167321133041" width="5" fill="black"><title>2025-08: 120296.49</title></rect><rect x="780" y="243.06360187419529" height="54.39486207423607" width="5" fill="black"><title>2025-09: 118452.44</title></rect><rect x="780" y="302.45846394843136" height="37.06083257448438" width="5" fill="black"><title>2025-10: 80705.16</title></rect><rect x="780" y="344.51929652291574" height="37.434397495129076" width="5" fill="black"><title>2025-11: 81518.65</title></rect><rect x="780" y="386.9536940180448" height="70.01910042144067" width="5" fill="black"><title>2025-12: 152476.41</title></rect><rect x="780" y="461.9727944394855" height="44.74263867065986" width="5" fill="black"><title>2026-01: 97433.37</title></rect><rect x="780" y="511.71543311014534" height="68.28456688985466" width="5" fill="black"><title>2026-02: 148699.22</title></rect><rect x="0" y="22.5" height="60.30275255964267" width="5" fill="black"><title>Cargo fijo: 131317.7</title></rect><rect x="0" y="87.80275255964267" height="320.5542908956176" width="5" fill="black"><title>Cargo variable: 698051.9199999999</title></rect><rect x="0" y="413.3570434552603" height="104.29009658761538" width="5" fill="black"><title>Impuestos: 227106.31</title></rect><rect x="0" y="522.6471400428757" height="34.85285995712434" width="5" fill="black"><title>Subsidio estado: 75896.99</title></rect></g><g fill="none" stroke-opacity="1"><g style="mix-blend-mode: multiply;"><path d="M5,97.71421988791471C392.5,97.71421988791471,392.5,13.306996073343045,780,13.306996073343045" stroke="rgb(253, 190, 112)" stroke-width="19.822934656544064"/><title>Cargo variable → 2025-02: 43167.22</title></g><g style="mix-blend-mode: multiply;"><path d="M5,416.53600061364943C392.5,416.53600061364943,392.5,26.397420560004203,780,26.397420560004203" stroke="rgb(190, 229, 160)" stroke-width="6.357914316778256"/><title>Impuestos → 2025-02: 13845.25</title></g><g style="mix-blend-mode: multiply;"><path d="M5,24.197764372535506C392.5,24.197764372535506,392.5,1.6977643725355067,780,1.6977643725355067" stroke="rgb(158, 1, 66)" stroke-width="3.3955287450710134"/><title>Cargo fijo → 2025-02: 7394.24</title></g><g style="mix-blend-mode: multiply;"><path d="M5,523.5840142662543C392.5,523.5840142662543,392.5,30.51325194177197,780,30.51325194177197" stroke="rgb(94, 79, 162)" stroke-width="1.8737484467572747"/><title>Subsidio estado → 2025-02: 4080.35</title></g><g style="mix-blend-mode: multiply;"><path d="M5,118.01915565059613C392.5,118.01915565059613,392.5,50.48985346629448,780,50.48985346629448" stroke="rgb(253, 190, 112)" stroke-width="20.786936868818795"/><title>Cargo variable → 2025-03: 45266.47</title></g><g style="mix-blend-mode: multiply;"><path d="M5,423.06022798567096C392.5,423.06022798567096,392.5,64.22859211433632,780,64.22859211433632" stroke="rgb(190, 229, 160)" stroke-width="6.690540427264897"/><title>Impuestos → 2025-03: 14569.59</title></g><g style="mix-blend-mode: multiply;"><path d="M5,27.718658178438247C392.5,27.718658178438247,392.5,38.27325559851784,780,38.27325559851784" stroke="rgb(158, 1, 66)" stroke-width="3.646258866734467"/><title>Cargo fijo → 2025-03: 7940.24</title></g><g style="mix-blend-mode: multiply;"><path d="M5,524.7327072251074C392.5,524.7327072251074,392.5,67.78568106344329,780,67.78568106344329" stroke="rgb(94, 79, 162)" stroke-width="1"/><title>Subsidio estado → 2025-03: 922.53</title></g><g style="mix-blend-mode: multiply;"><path d="M5,134.65249319102406C392.5,134.65249319102406,392.5,80.20386464204742,780,80.20386464204742" stroke="rgb(253, 190, 112)" stroke-width="12.479738212037072"/><title>Cargo variable → 2025-04: 27176.38</title></g><g style="mix-blend-mode: multiply;"><path d="M5,428.24648870974414C392.5,428.24648870974414,392.5,88.28472425850664,780,88.28472425850664" stroke="rgb(190, 229, 160)" stroke-width="3.6819810208813535"/><title>Impuestos → 2025-04: 8018.03</title></g><g style="mix-blend-mode: multiply;"><path d="M5,30.025035480361005C392.5,30.025035480361005,392.5,73.48074766747335,780,73.48074766747335" stroke="rgb(158, 1, 66)" stroke-width="1"/><title>Cargo fijo → 2025-04: 2104.68</title></g><g style="mix-blend-mode: multiply;"><path d="M5,524.9445282566454C392.5,524.9445282566454,392.5,90.1257170650107,780,90.1257170650107" stroke="rgb(94, 79, 162)" stroke-width="1"/><title>Subsidio estado → 2025-04: 0.01</title></g><g style="mix-blend-mode: multiply;"><path d="M5,147.14159704560933C392.5,147.14159704560933,392.5,102.36944804367099,780,102.36944804367099" stroke="rgb(253, 190, 112)" stroke-width="12.498469497133504"/><title>Cargo variable → 2025-05: 27217.17</title></g><g style="mix-blend-mode: multiply;"><path d="M5,431.9348688592801C392.5,431.9348688592801,392.5,110.46607243133295,780,110.46607243133295" stroke="rgb(190, 229, 160)" stroke-width="3.6947792781904383"/><title>Impuestos → 2025-05: 8045.9</title></g><g style="mix-blend-mode: multiply;"><path d="M5,31.00553031593161C392.5,31.00553031593161,392.5,95.62296632808916,780,95.62296632808916" stroke="rgb(158, 1, 66)" stroke-width="1"/><title>Cargo fijo → 2025-05: 2165.65</title></g><g style="mix-blend-mode: multiply;"><path d="M5,524.9445328487722C392.5,524.9445328487722,392.5,112.31346436649156,780,112.31346436649156" stroke="rgb(94, 79, 162)" stroke-width="1"/><title>Subsidio estado → 2025-05: 0.01</title></g><g style="mix-blend-mode: multiply;"><path d="M5,162.01140406995958C392.5,162.01140406995958,392.5,127.07363030193268,780,127.07363030193268" stroke="rgb(253, 190, 112)" stroke-width="17.241144551566986"/><title>Cargo variable → 2025-06: 37545.01</title></g><g style="mix-blend-mode: multiply;"><path d="M5,436.29885647565646C392.5,436.29885647565646,392.5,138.21080055499738,780,138.21080055499738" stroke="rgb(190, 229, 160)" stroke-width="5.033195954562388"/><title>Impuestos → 2025-06: 10960.49</title></g><g style="mix-blend-mode: multiply;"><path d="M5,32.0725729647438C392.5,32.0725729647438,392.5,117.88326234435206,780,117.88326234435206" stroke="rgb(158, 1, 66)" stroke-width="1.1395913635942474"/><title>Cargo fijo → 2025-06: 2481.62</title></g><g style="mix-blend-mode: multiply;"><path d="M5,526.8451245725657C392.5,526.8451245725657,392.5,142.62798796000877,780,142.62798796000877" stroke="rgb(94, 79, 162)" stroke-width="3.8011788554604427"/><title>Subsidio estado → 2025-06: 8277.6</title></g><g style="mix-blend-mode: multiply;"><path d="M5,179.3675515483009C392.5,179.3675515483009,392.5,159.45094642496397,780,159.45094642496397" stroke="rgb(253, 190, 112)" stroke-width="17.471150405115655"/><title>Cargo variable → 2025-07: 38045.88</title></g><g style="mix-blend-mode: multiply;"><path d="M5,441.37000635797614C392.5,441.37000635797614,392.5,170.74107353256028,780,170.74107353256028" stroke="rgb(190, 229, 160)" stroke-width="5.109103810076983"/><title>Impuestos → 2025-07: 11125.79</title></g><g style="mix-blend-mode: multiply;"><path d="M5,33.23576556387448C392.5,33.23576556387448,392.5,150.12197430507257,780,150.12197430507257" stroke="rgb(158, 1, 66)" stroke-width="1.1867938346671163"/><title>Cargo fijo → 2025-07: 2584.41</title></g><g style="mix-blend-mode: multiply;"><path d="M5,531.008865612929C392.5,531.008865612929,392.5,175.55877705023184,780,175.55877705023184" stroke="rgb(94, 79, 162)" stroke-width="4.526303225266107"/><title>Subsidio estado → 2025-07: 9856.66</title></g><g style="mix-blend-mode: multiply;"><path d="M5,203.89568032057846C392.5,203.89568032057846,392.5,204.92657630844792,780,204.92657630844792" stroke="rgb(253, 190, 112)" stroke-width="31.585107139439536"/><title>Cargo variable → 2025-08: 68781</title></g><g style="mix-blend-mode: multiply;"><path d="M5,449.1132528142761C392.5,449.1132528142761,392.5,225.90782442942913,780,225.90782442942913" stroke="rgb(190, 229, 160)" stroke-width="10.377389102522868"/><title>Impuestos → 2025-08: 22598.22</title></g><g style="mix-blend-mode: multiply;"><path d="M5,36.98520951913967C392.5,36.98520951913967,392.5,185.97797570079652,780,185.97797570079652" stroke="rgb(158, 1, 66)" stroke-width="6.312094075863275"/><title>Cargo fijo → 2025-08: 13745.47</title></g><g style="mix-blend-mode: multiply;"><path d="M5,536.7555586723145C392.5,536.7555586723145,392.5,234.58006042744293,780,234.58006042744293" stroke="rgb(94, 79, 162)" stroke-width="6.967082893504728"/><title>Subsidio estado → 2025-08: 15171.8</title></g><g style="mix-blend-mode: multiply;"><path d="M5,235.66129018698186C392.5,235.66129018698186,392.5,265.4658790321478,780,265.4658790321478" stroke="rgb(253, 190, 112)" stroke-width="31.946112593367204"/><title>Cargo variable → 2025-09: 69567.14</title></g><g style="mix-blend-mode: multiply;"><path d="M5,459.55610727603766C392.5,459.55610727603766,392.5,286.69309523933157,780,286.69309523933157" stroke="rgb(190, 229, 160)" stroke-width="10.50831982100031"/><title>Impuestos → 2025-09: 22883.34</title></g><g style="mix-blend-mode: multiply;"><path d="M5,43.355866987705774C392.5,43.355866987705774,392.5,246.27821230482974,780,246.27821230482974" stroke="rgb(158, 1, 66)" stroke-width="6.4292208612689175"/><title>Cargo fijo → 2025-09: 14000.53</title></g><g style="mix-blend-mode: multiply;"><path d="M5,542.9947045183667C392.5,542.9947045183667,392.5,294.7028595491316,780,294.7028595491316" stroke="rgb(94, 79, 162)" stroke-width="5.511208798599669"/><title>Subsidio estado → 2025-09: 12001.43</title></g><g style="mix-blend-mode: multiply;"><path d="M5,262.65398125204194C392.5,262.65398125204194,392.5,317.610402057301,780,317.610402057301" stroke="rgb(253, 190, 112)" stroke-width="22.039269536752958"/><title>Cargo variable → 2025-10: 47993.6</title></g><g style="mix-blend-mode: multiply;"><path d="M5,468.39354962674315C392.5,468.39354962674315,392.5,332.2133192658828,780,332.2133192658828" stroke="rgb(190, 229, 160)" stroke-width="7.166564880410597"/><title>Impuestos → 2025-10: 15606.2</title></g><g style="mix-blend-mode: multiply;"><path d="M5,48.636629088586815C392.5,48.636629088586815,392.5,304.52461561867796,780,304.52461561867796" stroke="rgb(158, 1, 66)" stroke-width="4.132303340493165"/><title>Cargo fijo → 2025-10: 8998.67</title></g><g style="mix-blend-mode: multiply;"><path d="M5,547.6116563260804C392.5,547.6116563260804,392.5,337.6579491145019,780,337.6579491145019" stroke="rgb(94, 79, 162)" stroke-width="3.722694816827657"/><title>Subsidio estado → 2025-10: 8106.69</title></g><g style="mix-blend-mode: multiply;"><path d="M5,284.7607527562563C392.5,284.7607527562563,392.5,359.8712378250797,780,359.8712378250797" stroke="rgb(253, 190, 112)" stroke-width="22.17427347167574"/><title>Cargo variable → 2025-11: 48287.59</title></g><g style="mix-blend-mode: multiply;"><path d="M5,475.596739014211C392.5,475.596739014211,392.5,374.5782815081801,780,374.5782815081801" stroke="rgb(190, 229, 160)" stroke-width="7.239813894525134"/><title>Impuestos → 2025-11: 15765.71</title></g><g style="mix-blend-mode: multiply;"><path d="M5,52.83518304199644C392.5,52.83518304199644,392.5,346.6516988060788,780,346.6516988060788" stroke="rgb(158, 1, 66)" stroke-width="4.264804566326082"/><title>Cargo fijo → 2025-11: 9287.21</title></g><g style="mix-blend-mode: multiply;"><path d="M5,551.3507565157953C392.5,551.3507565157953,392.5,380.07594123674374,780,380.07594123674374" stroke="rgb(94, 79, 162)" stroke-width="3.7555055626021145"/><title>Subsidio estado → 2025-11: 8178.14</title></g><g style="mix-blend-mode: multiply;"><path d="M5,317.9525532101209C392.5,317.9525532101209,392.5,417.40348735997674,780,417.40348735997674" stroke="rgb(253, 190, 112)" stroke-width="44.20932743605348"/><title>Cargo variable → 2025-12: 96272.01</title></g><g style="mix-blend-mode: multiply;"><path d="M5,486.4121412405376C392.5,486.4121412405376,392.5,446.7036463570675,780,446.7036463570675" stroke="rgb(190, 229, 160)" stroke-width="14.390990558128145"/><title>Impuestos → 2025-12: 31338.4</title></g><g style="mix-blend-mode: multiply;"><path d="M5,59.140150137112066C392.5,59.140150137112066,392.5,391.1262588299974,780,391.1262588299974" stroke="rgb(158, 1, 66)" stroke-width="8.34512962390517"/><title>Cargo fijo → 2025-12: 18172.69</title></g><g style="mix-blend-mode: multiply;"><path d="M5,554.7653356987732C392.5,554.7653356987732,392.5,455.4359680378085,780,455.4359680378085" stroke="rgb(94, 79, 162)" stroke-width="3.073652803353863"/><title>Subsidio estado → 2025-12: 6693.31</title></g><g style="mix-blend-mode: multiply;"><path d="M5,354.76888488290587C392.5,354.76888488290587,392.5,481.5846473969017,780,481.5846473969017" stroke="rgb(253, 190, 112)" stroke-width="29.42333590951645"/><title>Cargo variable → 2026-01: 64073.44</title></g><g style="mix-blend-mode: multiply;"><path d="M5,498.3070422595411C392.5,498.3070422595411,392.5,500.9957210915993,780,500.9957210915993" stroke="rgb(190, 229, 160)" stroke-width="9.398811479878907"/><title>Impuestos → 2026-01: 20467.23</title></g><g style="mix-blend-mode: multiply;"><path d="M5,65.76280745039364C392.5,65.76280745039364,392.5,464.42288694081446,780,464.42288694081446" stroke="rgb(158, 1, 66)" stroke-width="4.900185002657958"/><title>Cargo fijo → 2026-01: 10670.84</title></g><g style="mix-blend-mode: multiply;"><path d="M5,556.8123152397535C392.5,556.8123152397535,392.5,506.20527997084207,780,506.20527997084207" stroke="rgb(94, 79, 162)" stroke-width="1.0203062786065211"/><title>Subsidio estado → 2026-01: 2221.86</title></g><g style="mix-blend-mode: multiply;"><path d="M5,388.91879814646217C392.5,388.91879814646217,392.5,545.7435310268634,780,545.7435310268634" stroke="rgb(253, 190, 112)" stroke-width="38.87649061759618"/><title>Cargo variable → 2026-02: 84659.01</title></g><g style="mix-blend-mode: multiply;"><path d="M5,510.3267940211781C392.5,510.3267940211781,392.5,572.5021223573591,780,572.5021223573591" stroke="rgb(190, 229, 160)" stroke-width="14.640692043395031"/><title>Impuestos → 2026-02: 31882.16</title></g><g style="mix-blend-mode: multiply;"><path d="M5,75.50782625568263C392.5,75.50782625568263,392.5,519.0103594141053,780,519.0103594141053" stroke="rgb(158, 1, 66)" stroke-width="14.58985260792001"/><title>Cargo fijo → 2026-02: 31771.45</title></g><g style="mix-blend-mode: multiply;"><path d="M5,557.4112341895285C392.5,557.4112341895285,392.5,579.9112341895283,780,579.9112341895283" stroke="rgb(94, 79, 162)" stroke-width="1"/><title>Subsidio estado → 2026-02: 386.6</title></g></g><g><text x="776" y="15.725063082575302" text-anchor="end"><tspan alignment-baseline="middle" x="776" style="font-family: Arial, sans-serif; font-size: 10px; fill: black; font-weight: bold;">2025-02</tspan></text><text x="776" y="52.22381298203422" text-anchor="end"><tspan alignment-baseline="middle" x="776" style="font-family: Arial, sans-serif; font-size: 10px; fill: black; font-weight: bold;">2025-03</tspan></text><text x="776" y="81.56160957999596" text-anchor="end"><tspan alignment-baseline="middle" x="776" style="font-family: Arial, sans-serif; font-size: 10px; fill: black; font-weight: bold;">2025-04</tspan></text><text x="776" y="103.71959301181451" text-anchor="end"><tspan alignment-baseline="middle" x="776" style="font-family: Arial, sans-serif; font-size: 10px; fill: black; font-weight: bold;">2025-05</tspan></text><text x="776" y="130.92102202514698" text-anchor="end"><tspan alignment-baseline="middle" x="776" style="font-family: Arial, sans-serif; font-size: 10px; fill: black; font-weight: bold;">2025-06</tspan></text><text x="776" y="163.67525302530194" text-anchor="end"><tspan alignment-baseline="middle" x="776" style="font-family: Arial, sans-serif; font-size: 10px; fill: black; font-weight: bold;">2025-07</tspan></text><text x="776" y="210.44276526853008" text-anchor="end"><tspan alignment-baseline="middle" x="776" style="font-family: Arial, sans-serif; font-size: 10px; fill: black; font-weight: bold;">2025-08</tspan></text><text x="776" y="270.26103291131335" text-anchor="end"><tspan alignment-baseline="middle" x="776" style="font-family: Arial, sans-serif; font-size: 10px; fill: black; font-weight: bold;">2025-09</tspan></text><text x="776" y="320.98888023567355" text-anchor="end"><tspan alignment-baseline="middle" x="776" style="font-family: Arial, sans-serif; font-size: 10px; fill: black; font-weight: bold;">2025-10</tspan></text><text x="776" y="363.2364952704803" text-anchor="end"><tspan alignment-baseline="middle" x="776" style="font-family: Arial, sans-serif; font-size: 10px; fill: black; font-weight: bold;">2025-11</tspan></text><text x="776" y="421.9632442287651" text-anchor="end"><tspan alignment-baseline="middle" x="776" style="font-family: Arial, sans-serif; font-size: 10px; fill: black; font-weight: bold;">2025-12</tspan></text><text x="776" y="484.3441137748154" text-anchor="end"><tspan alignment-baseline="middle" x="776" style="font-family: Arial, sans-serif; font-size: 10px; fill: black; font-weight: bold;">2026-01</tspan></text><text x="776" y="545.8577165550727" text-anchor="end"><tspan alignment-baseline="middle" x="776" style="font-family: Arial, sans-serif; font-size: 10px; fill: black; font-weight: bold;">2026-02</tspan></text><text x="9" y="52.651376279821335" text-anchor="start"><tspan alignment-baseline="middle" x="9" style="font-family: Arial, sans-serif; font-size: 10px; fill: black; font-weight: bold;">Cargo fijo</tspan></text><text x="9" y="248.07989800745148" text-anchor="start"><tspan alignment-baseline="middle" x="9" style="font-family: Arial, sans-serif; font-size: 10px; fill: black; font-weight: bold;">Cargo variable</tspan></text><text x="9" y="465.502091749068" text-anchor="start"><tspan alignment-baseline="middle" x="9" style="font-family: Arial, sans-serif; font-size: 10px; fill: black; font-weight: bold;">Impuestos</tspan></text><text x="9" y="540.0735700214378" text-anchor="start"><tspan alignment-baseline="middle" x="9" style="font-family: Arial, sans-serif; font-size: 10px; fill: black; font-weight: bold;">Subsidio estado</tspan></text></g><g><text x="782.5" y="-4" text-anchor="middle" style="font-family: Arial, sans-serif; font-size: 12px; fill: rgb(123, 123, 123); font-weight: bold;">fecha</text><text x="2.5" y="18.5" text-anchor="middle" style="font-family: Arial, sans-serif; font-size: 12px; fill: rgb(123, 123, 123); font-weight: bold;">concepto</text></g></g></svg>